<mxfile host="app.diagrams.net" modified="2021-11-19T06:34:20.606Z" agent="5.0 (Windows NT 10.0; Win64; x64) AppleWebKit/537.36 (KHTML, like Gecko) Chrome/95.0.4638.69 Safari/537.36" etag="ON7CGsRzed7lS6iUnAI6" version="15.8.2" type="github">
  <diagram id="QWwCKMkWEj3jSGGU1q7L" name="第 1 页">
    <mxGraphModel dx="1278" dy="588" grid="1" gridSize="10" guides="1" tooltips="1" connect="1" arrows="1" fold="1" page="1" pageScale="1" pageWidth="827" pageHeight="1169" math="0" shadow="0">
      <root>
        <mxCell id="0" />
        <mxCell id="1" parent="0" />
        <mxCell id="RHOAhawh5C-QmzYUM9-l-4" style="edgeStyle=orthogonalEdgeStyle;rounded=0;orthogonalLoop=1;jettySize=auto;html=1;" parent="1" source="RHOAhawh5C-QmzYUM9-l-1" target="RHOAhawh5C-QmzYUM9-l-3" edge="1">
          <mxGeometry relative="1" as="geometry" />
        </mxCell>
        <mxCell id="RHOAhawh5C-QmzYUM9-l-5" value="实时记录" style="edgeLabel;html=1;align=center;verticalAlign=middle;resizable=0;points=[];" parent="RHOAhawh5C-QmzYUM9-l-4" vertex="1" connectable="0">
          <mxGeometry x="-0.1734" relative="1" as="geometry">
            <mxPoint x="39" as="offset" />
          </mxGeometry>
        </mxCell>
        <mxCell id="RHOAhawh5C-QmzYUM9-l-7" value="订阅实时逐笔成交和逐笔委托行情" style="edgeStyle=orthogonalEdgeStyle;rounded=0;orthogonalLoop=1;jettySize=auto;html=1;entryX=0.5;entryY=0;entryDx=0;entryDy=0;entryPerimeter=0;" parent="1" source="RHOAhawh5C-QmzYUM9-l-1" target="RHOAhawh5C-QmzYUM9-l-6" edge="1">
          <mxGeometry relative="1" as="geometry" />
        </mxCell>
        <mxCell id="RHOAhawh5C-QmzYUM9-l-1" value="Market Server" style="aspect=fixed;perimeter=ellipsePerimeter;html=1;align=center;shadow=0;dashed=0;spacingTop=3;image;image=img/lib/active_directory/generic_server.svg;" parent="1" vertex="1">
          <mxGeometry x="212" y="80" width="44.8" height="80" as="geometry" />
        </mxCell>
        <mxCell id="RHOAhawh5C-QmzYUM9-l-19" style="edgeStyle=orthogonalEdgeStyle;rounded=0;orthogonalLoop=1;jettySize=auto;html=1;entryX=0.5;entryY=0;entryDx=0;entryDy=0;" parent="1" source="RHOAhawh5C-QmzYUM9-l-3" target="RHOAhawh5C-QmzYUM9-l-18" edge="1">
          <mxGeometry relative="1" as="geometry" />
        </mxCell>
        <mxCell id="RHOAhawh5C-QmzYUM9-l-20" value="拷贝（作为备份）" style="edgeLabel;html=1;align=center;verticalAlign=middle;resizable=0;points=[];" parent="RHOAhawh5C-QmzYUM9-l-19" vertex="1" connectable="0">
          <mxGeometry x="0.3287" relative="1" as="geometry">
            <mxPoint as="offset" />
          </mxGeometry>
        </mxCell>
        <mxCell id="RHOAhawh5C-QmzYUM9-l-3" value="行情快照日志&lt;br&gt;（包含 order.log deal.log）" style="shape=image;html=1;verticalAlign=top;verticalLabelPosition=bottom;labelBackgroundColor=#ffffff;imageAspect=0;aspect=fixed;image=https://cdn3.iconfinder.com/data/icons/document-file-formats-2/512/9-128.png" parent="1" vertex="1">
          <mxGeometry x="630" y="85" width="70" height="70" as="geometry" />
        </mxCell>
        <mxCell id="RHOAhawh5C-QmzYUM9-l-13" style="edgeStyle=orthogonalEdgeStyle;rounded=0;orthogonalLoop=1;jettySize=auto;html=1;" parent="1" source="RHOAhawh5C-QmzYUM9-l-6" target="RHOAhawh5C-QmzYUM9-l-9" edge="1">
          <mxGeometry relative="1" as="geometry" />
        </mxCell>
        <mxCell id="RHOAhawh5C-QmzYUM9-l-14" style="edgeStyle=orthogonalEdgeStyle;rounded=0;orthogonalLoop=1;jettySize=auto;html=1;exitX=0.5;exitY=1;exitDx=0;exitDy=0;exitPerimeter=0;" parent="1" source="RHOAhawh5C-QmzYUM9-l-6" target="RHOAhawh5C-QmzYUM9-l-10" edge="1">
          <mxGeometry relative="1" as="geometry" />
        </mxCell>
        <mxCell id="RHOAhawh5C-QmzYUM9-l-6" value="&lt;b&gt;quanxi&lt;/b&gt;&lt;br&gt;（jqcore quanxi branch）" style="html=1;outlineConnect=0;whiteSpace=wrap;fillColor=#99ffff;shape=mxgraph.archimate3.application;appType=proc;archiType=rounded;" parent="1" vertex="1">
          <mxGeometry x="158.9" y="280" width="151" height="50" as="geometry" />
        </mxCell>
        <mxCell id="RHOAhawh5C-QmzYUM9-l-47" value="盘后备份" style="edgeStyle=orthogonalEdgeStyle;rounded=0;orthogonalLoop=1;jettySize=auto;html=1;" parent="1" source="RHOAhawh5C-QmzYUM9-l-8" target="RHOAhawh5C-QmzYUM9-l-44" edge="1">
          <mxGeometry relative="1" as="geometry" />
        </mxCell>
        <mxCell id="RHOAhawh5C-QmzYUM9-l-8" value="" style="swimlane;startSize=0;fillColor=#E6E6E6;swimlaneFillColor=#F0F0F0;gradientColor=#C7C7C7;" parent="1" vertex="1">
          <mxGeometry x="71.60000000000001" y="485" width="325.6" height="200" as="geometry" />
        </mxCell>
        <mxCell id="RHOAhawh5C-QmzYUM9-l-9" value="&lt;b&gt;逐笔委托&lt;br&gt;&lt;/b&gt;（/dev/shm/l2order）&lt;br&gt;(目前仅深交所)" style="shadow=0;dashed=0;html=1;strokeColor=none;fillColor=#4495D1;labelPosition=center;verticalLabelPosition=bottom;verticalAlign=top;align=center;outlineConnect=0;shape=mxgraph.veeam.local_disk;" parent="RHOAhawh5C-QmzYUM9-l-8" vertex="1">
          <mxGeometry x="48.39999999999999" y="44" width="57.2" height="56.8" as="geometry" />
        </mxCell>
        <mxCell id="RHOAhawh5C-QmzYUM9-l-10" value="&lt;b&gt;逐笔成交&lt;br&gt;&lt;/b&gt;（/dev/shm/quanxi）" style="shadow=0;dashed=0;html=1;strokeColor=none;fillColor=#4495D1;labelPosition=center;verticalLabelPosition=bottom;verticalAlign=top;align=center;outlineConnect=0;shape=mxgraph.veeam.local_disk;" parent="RHOAhawh5C-QmzYUM9-l-8" vertex="1">
          <mxGeometry x="208.39999999999998" y="43" width="57.2" height="56.8" as="geometry" />
        </mxCell>
        <mxCell id="RHOAhawh5C-QmzYUM9-l-11" value="&lt;b&gt;共享内存（/dev/shm）&lt;/b&gt;" style="text;html=1;strokeColor=none;fillColor=none;align=center;verticalAlign=middle;whiteSpace=wrap;rounded=0;" parent="RHOAhawh5C-QmzYUM9-l-8" vertex="1">
          <mxGeometry x="98" y="165" width="167.6" height="25" as="geometry" />
        </mxCell>
        <mxCell id="RHOAhawh5C-QmzYUM9-l-16" value="实时写入" style="text;html=1;strokeColor=none;fillColor=none;align=center;verticalAlign=middle;whiteSpace=wrap;rounded=0;" parent="1" vertex="1">
          <mxGeometry x="204" y="360" width="60" height="30" as="geometry" />
        </mxCell>
        <mxCell id="RHOAhawh5C-QmzYUM9-l-22" value="读取日志" style="edgeStyle=orthogonalEdgeStyle;rounded=0;orthogonalLoop=1;jettySize=auto;html=1;entryX=0.5;entryY=0;entryDx=0;entryDy=0;entryPerimeter=0;" parent="1" source="RHOAhawh5C-QmzYUM9-l-18" target="RHOAhawh5C-QmzYUM9-l-21" edge="1">
          <mxGeometry x="0.3333" relative="1" as="geometry">
            <mxPoint as="offset" />
          </mxGeometry>
        </mxCell>
        <mxCell id="RHOAhawh5C-QmzYUM9-l-18" value="Snap 网盘（/snap/level2/jq/）" style="shape=image;html=1;verticalAlign=top;verticalLabelPosition=bottom;labelBackgroundColor=#ffffff;imageAspect=0;aspect=fixed;image=https://cdn2.iconfinder.com/data/icons/crystalproject/128x128/devices/nfs_unmount.png;fillColor=#E6E6E6;gradientColor=#C7C7C7;" parent="1" vertex="1">
          <mxGeometry x="615" y="250" width="100" height="100" as="geometry" />
        </mxCell>
        <mxCell id="RHOAhawh5C-QmzYUM9-l-26" style="edgeStyle=orthogonalEdgeStyle;rounded=0;orthogonalLoop=1;jettySize=auto;html=1;" parent="1" source="RHOAhawh5C-QmzYUM9-l-21" edge="1">
          <mxGeometry relative="1" as="geometry">
            <mxPoint x="580" y="570" as="targetPoint" />
          </mxGeometry>
        </mxCell>
        <mxCell id="RHOAhawh5C-QmzYUM9-l-27" style="edgeStyle=orthogonalEdgeStyle;rounded=0;orthogonalLoop=1;jettySize=auto;html=1;" parent="1" source="RHOAhawh5C-QmzYUM9-l-21" edge="1">
          <mxGeometry relative="1" as="geometry">
            <mxPoint x="750" y="570" as="targetPoint" />
          </mxGeometry>
        </mxCell>
        <mxCell id="RHOAhawh5C-QmzYUM9-l-21" value="&lt;b&gt;parse_sec_l2_from_log.py&lt;/b&gt;&lt;br&gt;（jqcore quanxi branch）" style="html=1;outlineConnect=0;whiteSpace=wrap;fillColor=#99ffff;shape=mxgraph.archimate3.application;appType=proc;archiType=rounded;" parent="1" vertex="1">
          <mxGeometry x="567.5" y="440" width="195" height="60" as="geometry" />
        </mxCell>
        <mxCell id="RHOAhawh5C-QmzYUM9-l-39" style="edgeStyle=orthogonalEdgeStyle;rounded=0;orthogonalLoop=1;jettySize=auto;html=1;entryX=0.5;entryY=0;entryDx=0;entryDy=0;" parent="1" source="RHOAhawh5C-QmzYUM9-l-28" target="RHOAhawh5C-QmzYUM9-l-33" edge="1">
          <mxGeometry relative="1" as="geometry" />
        </mxCell>
        <mxCell id="RHOAhawh5C-QmzYUM9-l-28" value="&lt;b&gt;parse_sec_l2_to_quanxi.py&lt;/b&gt;&lt;br&gt;（jqcore quanxi branch）" style="html=1;outlineConnect=0;whiteSpace=wrap;fillColor=#99ffff;shape=mxgraph.archimate3.application;appType=proc;archiType=rounded;" parent="1" vertex="1">
          <mxGeometry x="567.5" y="740" width="195" height="60" as="geometry" />
        </mxCell>
        <mxCell id="RHOAhawh5C-QmzYUM9-l-37" style="edgeStyle=orthogonalEdgeStyle;rounded=0;orthogonalLoop=1;jettySize=auto;html=1;entryX=0.5;entryY=0;entryDx=0;entryDy=0;entryPerimeter=0;" parent="1" source="RHOAhawh5C-QmzYUM9-l-30" target="RHOAhawh5C-QmzYUM9-l-28" edge="1">
          <mxGeometry relative="1" as="geometry" />
        </mxCell>
        <mxCell id="RHOAhawh5C-QmzYUM9-l-30" value="&lt;b&gt;逐笔成交&lt;br&gt;&lt;/b&gt;（/snap/level2/deal）" style="shape=image;html=1;verticalAlign=top;verticalLabelPosition=bottom;labelBackgroundColor=#ffffff;imageAspect=0;aspect=fixed;image=https://cdn3.iconfinder.com/data/icons/cad-database-presentation-spreadsheet-vector-fil-2/512/19-128.png;fillColor=#E6E6E6;gradientColor=#C7C7C7;" parent="1" vertex="1">
          <mxGeometry x="715" y="570" width="60" height="60" as="geometry" />
        </mxCell>
        <mxCell id="RHOAhawh5C-QmzYUM9-l-36" style="edgeStyle=orthogonalEdgeStyle;rounded=0;orthogonalLoop=1;jettySize=auto;html=1;" parent="1" source="RHOAhawh5C-QmzYUM9-l-31" target="RHOAhawh5C-QmzYUM9-l-28" edge="1">
          <mxGeometry relative="1" as="geometry" />
        </mxCell>
        <mxCell id="RHOAhawh5C-QmzYUM9-l-38" value="合成全息数据" style="edgeLabel;html=1;align=center;verticalAlign=middle;resizable=0;points=[];" parent="RHOAhawh5C-QmzYUM9-l-36" vertex="1" connectable="0">
          <mxGeometry x="0.6082" y="-1" relative="1" as="geometry">
            <mxPoint x="1" y="8" as="offset" />
          </mxGeometry>
        </mxCell>
        <mxCell id="RHOAhawh5C-QmzYUM9-l-31" value="&lt;b&gt;逐笔委托&lt;br&gt;&lt;/b&gt;（/snap/level2/order）" style="shape=image;html=1;verticalAlign=top;verticalLabelPosition=bottom;labelBackgroundColor=#ffffff;imageAspect=0;aspect=fixed;image=https://cdn3.iconfinder.com/data/icons/cad-database-presentation-spreadsheet-vector-fil-2/512/19-128.png;fillColor=#E6E6E6;gradientColor=#C7C7C7;" parent="1" vertex="1">
          <mxGeometry x="550" y="570" width="60" height="60" as="geometry" />
        </mxCell>
        <mxCell id="RHOAhawh5C-QmzYUM9-l-52" style="edgeStyle=orthogonalEdgeStyle;rounded=0;orthogonalLoop=1;jettySize=auto;html=1;" parent="1" source="RHOAhawh5C-QmzYUM9-l-33" target="RHOAhawh5C-QmzYUM9-l-51" edge="1">
          <mxGeometry relative="1" as="geometry" />
        </mxCell>
        <mxCell id="RHOAhawh5C-QmzYUM9-l-33" value="&lt;b&gt;全息数据&lt;br&gt;&lt;/b&gt;（/snap/level2/order）" style="shape=image;html=1;verticalAlign=top;verticalLabelPosition=bottom;labelBackgroundColor=#ffffff;imageAspect=0;aspect=fixed;image=https://cdn3.iconfinder.com/data/icons/cad-database-presentation-spreadsheet-vector-fil-2/512/19-128.png;fillColor=#E6E6E6;gradientColor=#C7C7C7;" parent="1" vertex="1">
          <mxGeometry x="635" y="850" width="60" height="60" as="geometry" />
        </mxCell>
        <mxCell id="RHOAhawh5C-QmzYUM9-l-40" value="" style="swimlane;startSize=0;fillColor=#E6E6E6;gradientColor=#C7C7C7;" parent="1" vertex="1">
          <mxGeometry x="71.6" y="760" width="328" height="250" as="geometry" />
        </mxCell>
        <mxCell id="RHOAhawh5C-QmzYUM9-l-41" value="fastjqdata 网盘" style="shape=image;html=1;verticalAlign=top;verticalLabelPosition=bottom;labelBackgroundColor=#ffffff;imageAspect=0;aspect=fixed;image=https://cdn2.iconfinder.com/data/icons/crystalproject/128x128/devices/nfs_unmount.png;fillColor=#E6E6E6;gradientColor=#C7C7C7;" parent="RHOAhawh5C-QmzYUM9-l-40" vertex="1">
          <mxGeometry x="45.80000000000001" y="170" width="40" height="40" as="geometry" />
        </mxCell>
        <mxCell id="RHOAhawh5C-QmzYUM9-l-44" value="fastjqdata/quanxi-shm" style="shadow=0;dashed=0;html=1;strokeColor=none;fillColor=#4495D1;labelPosition=center;verticalLabelPosition=bottom;verticalAlign=top;align=center;outlineConnect=0;shape=mxgraph.veeam.local_disk;" parent="RHOAhawh5C-QmzYUM9-l-40" vertex="1">
          <mxGeometry x="50" y="30" width="57.2" height="60" as="geometry" />
        </mxCell>
        <mxCell id="RHOAhawh5C-QmzYUM9-l-48" value="/fastjqdata/quanxi-sa2-new" style="shadow=0;dashed=0;html=1;strokeColor=none;fillColor=#4495D1;labelPosition=center;verticalLabelPosition=bottom;verticalAlign=top;align=center;outlineConnect=0;shape=mxgraph.veeam.local_disk;" parent="RHOAhawh5C-QmzYUM9-l-40" vertex="1">
          <mxGeometry x="218.4" y="30" width="57.2" height="60" as="geometry" />
        </mxCell>
        <mxCell id="RHOAhawh5C-QmzYUM9-l-49" value="&lt;b&gt;SharedArray 格式数据&lt;/b&gt;" style="text;html=1;strokeColor=none;fillColor=none;align=center;verticalAlign=middle;whiteSpace=wrap;rounded=0;" parent="RHOAhawh5C-QmzYUM9-l-40" vertex="1">
          <mxGeometry y="230" width="131.6" height="20" as="geometry" />
        </mxCell>
        <mxCell id="RHOAhawh5C-QmzYUM9-l-56" value="/fastjqdata/quanxi-sa2" style="shadow=0;dashed=0;html=1;strokeColor=none;fillColor=#4495D1;labelPosition=center;verticalLabelPosition=bottom;verticalAlign=top;align=center;outlineConnect=0;shape=mxgraph.veeam.local_disk;" parent="RHOAhawh5C-QmzYUM9-l-40" vertex="1">
          <mxGeometry x="218.4" y="150" width="57.2" height="60" as="geometry" />
        </mxCell>
        <mxCell id="RHOAhawh5C-QmzYUM9-l-51" value="&lt;b&gt;level2tools.py&lt;/b&gt;&lt;br&gt;（jqcore quanxi branch）" style="html=1;outlineConnect=0;whiteSpace=wrap;fillColor=#99ffff;shape=mxgraph.archimate3.application;appType=proc;archiType=rounded;" parent="1" vertex="1">
          <mxGeometry x="440" y="862.5" width="150" height="35" as="geometry" />
        </mxCell>
        <mxCell id="RHOAhawh5C-QmzYUM9-l-54" value="" style="curved=1;endArrow=classic;html=1;rounded=0;edgeStyle=orthogonalEdgeStyle;exitX=0.5;exitY=0;exitDx=0;exitDy=0;exitPerimeter=0;" parent="1" source="RHOAhawh5C-QmzYUM9-l-51" target="RHOAhawh5C-QmzYUM9-l-48" edge="1">
          <mxGeometry width="50" height="50" relative="1" as="geometry">
            <mxPoint x="440" y="830" as="sourcePoint" />
            <mxPoint x="490" y="780" as="targetPoint" />
            <Array as="points">
              <mxPoint x="515" y="820" />
            </Array>
          </mxGeometry>
        </mxCell>
        <mxCell id="RHOAhawh5C-QmzYUM9-l-55" value="转成 SharedArray 格式存储" style="edgeLabel;html=1;align=center;verticalAlign=middle;resizable=0;points=[];" parent="RHOAhawh5C-QmzYUM9-l-54" vertex="1" connectable="0">
          <mxGeometry x="0.106" y="1" relative="1" as="geometry">
            <mxPoint x="49" y="19" as="offset" />
          </mxGeometry>
        </mxCell>
        <mxCell id="RHOAhawh5C-QmzYUM9-l-57" value="&lt;b&gt;从第三方购买的全息数据&lt;/b&gt;" style="shape=image;html=1;verticalAlign=top;verticalLabelPosition=bottom;labelBackgroundColor=#ffffff;imageAspect=0;aspect=fixed;image=https://cdn3.iconfinder.com/data/icons/cad-database-presentation-spreadsheet-vector-fil-2/512/19-128.png;fillColor=#E6E6E6;gradientColor=#C7C7C7;" parent="1" vertex="1">
          <mxGeometry x="635" y="1000" width="60" height="60" as="geometry" />
        </mxCell>
        <mxCell id="RHOAhawh5C-QmzYUM9-l-60" value="" style="curved=1;endArrow=classic;html=1;rounded=0;edgeStyle=orthogonalEdgeStyle;exitX=0;exitY=0.25;exitDx=0;exitDy=0;" parent="1" source="RHOAhawh5C-QmzYUM9-l-57" target="RHOAhawh5C-QmzYUM9-l-56" edge="1">
          <mxGeometry width="50" height="50" relative="1" as="geometry">
            <mxPoint x="635" y="1000" as="sourcePoint" />
            <mxPoint x="480" y="1040" as="targetPoint" />
            <Array as="points">
              <mxPoint x="635" y="1000" />
              <mxPoint x="510" y="1000" />
              <mxPoint x="510" y="950" />
            </Array>
          </mxGeometry>
        </mxCell>
        <mxCell id="RHOAhawh5C-QmzYUM9-l-61" value="转成 SharedArray 格式存储" style="edgeLabel;html=1;align=center;verticalAlign=middle;resizable=0;points=[];" parent="RHOAhawh5C-QmzYUM9-l-60" vertex="1" connectable="0">
          <mxGeometry x="0.2244" y="7" relative="1" as="geometry">
            <mxPoint x="32" y="13" as="offset" />
          </mxGeometry>
        </mxCell>
        <mxCell id="qlVlYHFGkHO9bkNXP4Md-1" value="&lt;b&gt;&lt;font style=&quot;font-size: 24px&quot;&gt;全息数据处理流程&lt;/font&gt;&lt;/b&gt;" style="text;html=1;strokeColor=none;fillColor=none;align=center;verticalAlign=middle;whiteSpace=wrap;rounded=0;" vertex="1" parent="1">
          <mxGeometry x="327.5" y="30" width="240" height="30" as="geometry" />
        </mxCell>
      </root>
    </mxGraphModel>
  </diagram>
</mxfile>
